<svg id="Layer_1" data-name="Layer 1" xmlns="http://www.w3.org/2000/svg" xmlns:xlink="http://www.w3.org/1999/xlink" viewBox="0 0 24.3 29.86"><defs><style>.cls-1{fill:url(#linear-gradient);}.cls-2{fill:url(#linear-gradient-2);}</style><linearGradient id="linear-gradient" x1="23.09" y1="6.61" x2="29.02" y2="3.18" gradientUnits="userSpaceOnUse"><stop offset="0" stop-color="#31cdb0"/><stop offset="0.24" stop-color="#2faeba"/><stop offset="0.51" stop-color="#2c8ec4"/><stop offset="0.63" stop-color="#2d85bf"/><stop offset="0.82" stop-color="#316cb2"/><stop offset="1" stop-color="#3551a4"/></linearGradient><linearGradient id="linear-gradient-2" x1="2.94" y1="29.96" x2="8.87" y2="26.54" xlink:href="#linear-gradient"/></defs><title>hyphen1</title><path d="M28.13,31.5H22V18.7H10V31.5H3.83V1.64H10v12.1H22V1.64h6.15Z" transform="translate(-3.83 -1.64)"/><path class="cls-1" d="M24.43,1.64h3.7V4.29a9,9,0,0,1-.28,2.54,3.82,3.82,0,0,1-1,1.67,5.48,5.48,0,0,1-2,1.16l-.73-1.53a3.17,3.17,0,0,0,1.6-1,3.11,3.11,0,0,0,.5-1.76H24.43Z" transform="translate(-3.83 -1.64)"/><path class="cls-2" d="M7.53,31.5H3.83V28.85a9,9,0,0,1,.28-2.54,3.93,3.93,0,0,1,1-1.67,5.5,5.5,0,0,1,2-1.16L7.84,25a3.13,3.13,0,0,0-1.59,1,3.08,3.08,0,0,0-.51,1.76H7.53Z" transform="translate(-3.83 -1.64)"/></svg>